<?xml version="1.0" standalone="no"?>
<!DOCTYPE svg PUBLIC "-//W3C//DTD SVG 20010904//EN"
 "http://www.w3.org/TR/2001/REC-SVG-20010904/DTD/svg10.dtd">
<svg version="1.0" xmlns="http://www.w3.org/2000/svg"
 width="512.000000pt" height="512.000000pt" viewBox="0 0 512.000000 512.000000"
 preserveAspectRatio="xMidYMid meet">

<g transform="translate(0.000000,512.000000) scale(0.100000,-0.100000)"
fill="#000000" stroke="none">
<path d="M198 5106 c-62 -17 -110 -51 -143 -101 -59 -91 -55 71 -53 -2470 l3
-2330 21 -45 c28 -60 67 -97 134 -129 l55 -26 2350 0 2350 0 45 21 c60 28 97
67 129 134 l26 55 0 2346 0 2346 -35 69 c-29 57 -44 74 -87 100 -29 17 -73 34
-99 38 -26 3 -1082 6 -2348 5 -1820 0 -2311 -3 -2348 -13z m652 -1978 c0 -814
4 -1296 10 -1319 5 -19 24 -48 41 -65 29 -28 35 -29 135 -32 l104 -4 0 -656
c0 -734 3 -704 -70 -747 -33 -19 -51 -20 -362 -20 -314 0 -328 1 -354 21 -15
11 -37 33 -48 48 l-21 27 -3 2002 c-1 1101 0 2008 3 2014 3 10 69 13 285 13
l280 0 0 -1282z m1280 0 c0 -814 4 -1296 10 -1319 5 -19 24 -48 41 -65 29 -28
35 -29 135 -32 l104 -4 0 -656 c0 -734 3 -704 -70 -747 -34 -19 -51 -20 -430
-20 -377 0 -397 1 -429 20 -18 11 -42 36 -52 55 -18 33 -19 70 -19 691 l0 657
104 4 c100 3 106 4 135 32 17 17 36 46 41 65 6 23 10 505 10 1319 l0 1282 210
0 210 0 0 -1282z m1280 0 c0 -814 4 -1296 10 -1319 5 -19 24 -48 41 -65 29
-28 35 -29 135 -32 l104 -4 0 -656 c0 -734 3 -704 -70 -747 -34 -19 -51 -20
-430 -20 -377 0 -397 1 -429 20 -18 11 -42 36 -52 55 -18 33 -19 70 -19 691
l0 657 104 4 c100 3 106 4 135 32 17 17 36 46 41 65 6 23 10 505 10 1319 l0
1282 210 0 210 0 0 -1282z m1425 -733 c0 -1952 -1 -2011 -19 -2041 -10 -17
-33 -40 -50 -50 -29 -18 -55 -19 -356 -19 -307 0 -327 1 -359 20 -18 11 -42
36 -52 55 -18 33 -19 70 -19 691 l0 657 104 4 c100 3 106 4 135 32 17 17 36
46 41 65 6 23 10 505 10 1319 l0 1282 283 -2 282 -3 0 -2010z"/>
</g>
</svg>
